<svg xmlns="http://www.w3.org/2000/svg" width="940" height="180"><defs><style>.g{fill:#7264d0}.i{fill:none}</style><clipPath id="e"><path class="i" d="M0 0h940v180H0z"/></clipPath><clipPath id="f"><path class="i" d="M0 0h940v180H0z"/></clipPath></defs><g id="b"><g id="c"><g clip-path="url(#e)" id="d"><g clip-path="url(#f)"><path class="g" d="M337.7 167.4H314v-66.2l-10.5 66.2h-15l-11-66.2v66.2h-20.2V25.7h28.3l11.2 83.4L310 25.7h27.6v141.7zM400.2 167h-49.7V25.7H400v19.5h-25v39.2h20.8v19.9H375v43.2h25.2V167zM490.7 167.4h-23.6v-66.2l-10.5 66.2h-15l-11-66.2v66.2h-20.2V25.7h28.3l11.2 83.4 13.2-83.4h27.6v141.7zM534.5 167h-31V25.7h31.1c17.7 0 29.3 10.3 29.3 36 0 15.8-3.9 27.2-12 32.6 8.7 4.6 13.7 15.5 13.7 34.2 0 25.4-10.7 38.5-31 38.5zM532 45.4H528V85h4c5.8 0 9-3.3 9-19.9 0-18-4-19.7-9-19.7zm-1.7 59H528v43.1h4.2c6.6 0 9.6-5.2 9.6-20.6 0-17.8-5.5-22.6-11.6-22.6zM625.6 167H576V25.7h49.5v19.5h-25v39.2h20.8v19.9h-20.8v43.2h25.2V167zM672.3 167.4c-1-2.6-1.7-5.5-1.8-8.5-.4-12.3-.4-17-.6-26-.4-21.2-3.3-23.4-6.3-23.4h-3.5v57.8h-24.5V25.7h30.5c19.7 0 30.2 11.2 30.2 37.2 0 19.7-1.7 30.2-14 36.2 10.7 6.8 11.8 23.4 11.8 32.4v10.7c0 13.2.7 18.4 2.4 25.2h-24.3zm-8.8-122.2h-3.3v44.7h3.1c5.5 0 9.2-4.4 9.2-23.4 0-18.4-3.7-21.3-9-21.3z"/><g><path class="g" d="M222 96v-6.4c0-1-.7-1.8-1.7-2-16.9-2.5-30.4-16-32.9-32.9-.1-1-1-1.7-2-1.7H179v-8h6.4c1 0 1.8-.7 2-1.7 2.5-16.9 16-30.4 32.9-32.9 1-.1 1.7-1 1.7-2V2h8v6.4c0 1 .7 1.8 1.7 2 16.9 2.5 30.4 16 32.9 32.9.1 1 1 1.7 2 1.7h6.4v8h-6.4c-1 0-1.8.7-2 1.7-2.5 16.9-16 30.4-32.9 32.9-1 .1-1.7 1-1.7 2V96h-8zm8-24v5.4c0 .6.3 1.2.7 1.6.4.3.8.4 1.3.4h.4c12-2.5 21.4-12 24-24 .1-.6 0-1.2-.4-1.7s-1-.7-1.6-.7H249v-8h5.4c.6 0 1.2-.3 1.6-.7.4-.5.5-1 .4-1.7-2.5-12-12-21.4-24-24h-.4c-.5 0-.9.2-1.3.4-.5.4-.7 1-.7 1.6V26h-8v-5.4c0-.6-.3-1.2-.7-1.6-.4-.3-.8-.4-1.3-.4h-.4c-12 2.5-21.4 12-24 24-.1.6 0 1.2.4 1.7s1 .7 1.6.7h5.4v8h-5.4c-.6 0-1.2.3-1.6.7-.4.5-.5 1-.4 1.7 2.5 12 12 21.4 24 24h.4c.5 0 .9-.2 1.3-.4.5-.4.7-1 .7-1.6V72h8z"/><path class="g" d="M222 65V55c0-1.1-.9-2-2-2h-10v-8h10c1.1 0 2-.9 2-2V33h8v10c0 1.1.9 2 2 2h10v8h-10c-1.1 0-2 .9-2 2v10h-8z"/></g></g></g></g></g></svg>